<svg width="40" height="40" viewBox="0 0 40 40" fill="none" xmlns="http://www.w3.org/2000/svg">
<path d="M17.3509 13.3664C17.3509 15.5832 15.5629 17.3697 13.3444 17.3697C11.1258 17.3697 9.33774 15.5832 9.33774 13.3664C9.33774 11.1497 11.1258 9.36311 13.3444 9.36311C15.5629 9.36311 17.3509 11.1497 17.3509 13.3664ZM26.6887 9.36311C24.4701 9.36311 22.6821 11.1497 22.6821 13.3664C22.6821 15.5832 24.4701 17.3697 26.6887 17.3697C28.9073 17.3697 30.6953 15.5832 30.6953 13.3664C30.6953 11.1497 28.8742 9.36311 26.6887 9.36311ZM13.3444 22.6964C11.1258 22.6964 9.33774 24.4831 9.33774 26.6997C9.33774 28.9164 11.1258 30.703 13.3444 30.703C15.5629 30.703 17.3509 28.9164 17.3509 26.6997C17.3509 24.4831 15.5629 22.6964 13.3444 22.6964ZM26.6887 22.6964C24.4701 22.6964 22.6821 24.4831 22.6821 26.6997C22.6821 28.9164 24.4701 30.703 26.6887 30.703C28.9073 30.703 30.6953 28.9164 30.6953 26.6997C30.6953 24.4831 28.8742 22.6964 26.6887 22.6964ZM0 4.4665V35.5665C0 38.0149 1.98675 40 4.43708 40H35.5629V35.5334H4.43708V4.43342H35.5629V39.9669C38.0132 39.9669 40 37.9818 40 35.5334V4.43342C40 1.98512 38.0132 0 35.5629 0H4.43708C1.98675 0.0330856 0 2.01819 0 4.4665Z" fill="black"/>
</svg>
